<svg width="16" height="16" viewBox="0 0 16 16" fill="none" xmlns="http://www.w3.org/2000/svg">
<path d="M12.5 3H3.5C3.10218 3 2.72064 3.15804 2.43934 3.43934C2.15804 3.72064 2 4.10218 2 4.5V11.5C2 11.8978 2.15804 12.2794 2.43934 12.5607C2.72064 12.842 3.10218 13 3.5 13H12.5C12.8978 13 13.2794 12.842 13.5607 12.5607C13.842 12.2794 14 11.8978 14 11.5V4.5C14 4.10218 13.842 3.72064 13.5607 3.43934C13.2794 3.15804 12.8978 3 12.5 3ZM12.35 5.4L8.35 8.9C8.24109 8.95614 8.12213 8.99013 8 9C7.87787 8.99013 7.75891 8.95614 7.65 8.9L3.65 5.4C3.55054 5.3138 3.4894 5.19163 3.48003 5.06036C3.47065 4.92908 3.5138 4.79946 3.6 4.7C3.6862 4.60054 3.80837 4.5394 3.93964 4.53003C4.07092 4.52065 4.20054 4.5638 4.3 4.65L7.95 7.85L11.6 4.65C11.6486 4.60602 11.7056 4.57232 11.7676 4.55095C11.8296 4.52958 11.8953 4.52097 11.9607 4.52564C12.0261 4.53031 12.0898 4.54817 12.1482 4.57813C12.2065 4.6081 12.2581 4.64955 12.3 4.7C12.3554 4.73832 12.4015 4.78858 12.4348 4.84708C12.4682 4.90558 12.488 4.97083 12.4928 5.03801C12.4976 5.10519 12.4873 5.17259 12.4626 5.23524C12.4378 5.29789 12.3994 5.3542 12.35 5.4Z" fill="#B3B3B3"/>
</svg>
